<?xml version="1.0" standalone="no"?>
<!DOCTYPE svg PUBLIC "-//W3C//DTD SVG 20010904//EN"
 "http://www.w3.org/TR/2001/REC-SVG-20010904/DTD/svg10.dtd">
<svg version="1.0" xmlns="http://www.w3.org/2000/svg"
 width="433.000000pt" height="577.000000pt" viewBox="0 0 433.000000 577.000000"
 preserveAspectRatio="xMidYMid meet">

<g transform="translate(0.000000,577.000000) scale(0.100000,-0.100000)"
fill="#000000" stroke="none">
<path d="M2180 4607 c-39 -20 -79 -86 -91 -151 -12 -69 -6 -129 23 -200 11
-28 24 -62 30 -76 9 -24 10 -24 24 -6 8 11 14 30 14 43 0 14 6 23 15 23 8 0
12 -6 9 -14 -3 -8 -1 -17 4 -20 5 -3 8 -29 5 -58 -8 -83 -72 -153 -81 -90 l-3
22 -19 -22 c-18 -23 -19 -23 -33 -4 -14 19 -15 19 -42 2 -22 -14 -25 -20 -14
-27 13 -8 6 -13 -13 -10 -17 2 -6 -18 12 -24 11 -4 18 -11 15 -16 -4 -5 3 -9
14 -9 33 0 33 -18 0 -25 -22 -5 -36 -2 -49 10 -17 16 -19 15 -22 -7 -2 -13
-10 -23 -18 -24 -34 -1 -90 -16 -90 -23 0 -5 -8 -11 -18 -13 -17 -5 -49 -60
-71 -123 -10 -29 -11 -29 -8 13 3 42 -6 55 -17 26 -3 -9 -6 -46 -6 -83 0 -46
-5 -73 -16 -87 -14 -18 -15 -17 -10 16 2 19 1 44 -4 55 -5 12 -9 14 -9 6 -1
-8 -3 -12 -6 -9 -3 3 6 30 20 62 14 31 25 62 25 69 -1 18 -24 -16 -86 -123
-31 -52 -60 -102 -65 -110 -29 -48 -48 -90 -42 -90 5 0 17 7 27 15 22 16 36
19 36 8 0 -5 -14 -16 -30 -25 -22 -13 -30 -25 -30 -45 0 -21 -3 -24 -9 -13 -6
8 -7 18 -5 22 3 4 1 8 -4 8 -6 0 -13 -11 -16 -24 -3 -13 -9 -32 -13 -43 -5
-14 -4 -16 8 -7 8 6 31 14 51 17 34 5 36 4 26 -13 -7 -11 -31 -22 -57 -27 -41
-7 -46 -11 -46 -36 -1 -15 3 -27 7 -27 4 0 8 -7 8 -15 0 -18 16 -20 24 -2 3 6
3 2 0 -10 -7 -30 4 -29 47 3 44 33 84 52 45 22 -53 -41 -81 -70 -65 -65 9 3
22 1 30 -5 11 -8 10 -9 -3 -4 -27 8 -22 -9 7 -28 14 -10 30 -28 35 -42 6 -14
14 -22 20 -19 6 3 7 -1 4 -9 -11 -29 15 -16 32 15 l16 32 -26 -5 c-18 -4 -26
-1 -26 9 0 9 -5 11 -12 7 -9 -5 -9 -2 1 9 15 18 26 23 16 7 -8 -13 65 -13 99
0 37 14 32 4 -6 -15 -46 -21 -93 -111 -79 -148 12 -31 36 -34 70 -10 23 16 25
15 42 -5 9 -12 25 -22 34 -22 9 0 13 -5 9 -11 -4 -7 -8 -64 -11 -127 -3 -107
-2 -115 13 -97 15 19 15 19 11 -8 -2 -16 1 -31 8 -35 15 -8 45 -77 45 -103 0
-21 4 -23 29 -10 10 6 23 6 32 0 11 -7 10 -9 -6 -9 -28 0 -45 -18 -37 -39 8
-22 28 -41 43 -41 9 0 9 -3 0 -14 -9 -11 -10 -44 -2 -133 6 -65 14 -167 18
-228 6 -91 8 -102 14 -65 l6 45 3 -50 c2 -27 5 -63 6 -80 3 -54 4 -56 17 -49
8 5 9 4 2 -4 -17 -19 -8 -168 15 -233 11 -33 20 -72 20 -87 0 -16 6 -51 14
-78 8 -27 22 -87 31 -134 10 -47 23 -97 31 -111 7 -15 10 -29 7 -33 -4 -3 0
-6 7 -6 7 0 11 -2 8 -5 -12 -12 -38 9 -38 29 0 12 -7 31 -16 42 -8 10 -12 13
-8 5 5 -9 3 -12 -5 -7 -6 4 -9 11 -6 16 3 4 -6 28 -20 52 -23 38 -25 40 -20
13 4 -16 11 -43 16 -59 5 -16 9 -42 9 -59 0 -17 11 -42 26 -60 23 -28 26 -37
20 -82 -9 -73 -11 -84 -41 -166 -72 -199 -69 -187 -57 -227 19 -61 25 -66 95
-70 59 -4 65 -2 85 22 12 16 25 56 32 99 7 39 23 96 36 126 13 29 24 70 24 91
0 64 26 62 66 -6 49 -83 116 -117 193 -98 73 18 63 91 -25 189 -40 44 -82 120
-101 179 -10 32 -9 44 3 67 8 15 14 36 14 46 0 10 14 58 30 106 17 49 30 101
30 115 0 48 38 177 80 276 39 90 43 110 66 302 26 223 28 232 55 315 10 31 21
87 24 125 4 38 19 107 35 154 40 119 45 168 27 232 -9 29 -19 112 -22 183 -16
332 -24 442 -38 480 -29 80 -68 145 -105 175 -34 28 -100 56 -129 53 -6 0 -9
5 -7 11 5 13 -52 50 -65 42 -5 -3 -12 1 -15 10 -3 8 -10 13 -15 10 -14 -9 -25
53 -12 68 7 8 27 17 46 20 43 8 72 47 86 118 19 89 17 160 -4 181 -16 16 -16
20 -2 40 10 15 15 17 16 7 1 -23 17 21 18 49 1 36 -64 93 -130 114 -65 20
-183 22 -219 4z m123 -294 c6 -32 -23 -153 -37 -153 -11 0 -35 31 -36 48 0 6
6 12 13 12 9 0 14 12 15 32 0 18 7 37 14 43 8 5 12 18 10 28 -2 9 1 17 6 17 5
0 12 -12 15 -27z m-614 -662 c-6 -18 -14 -30 -17 -27 -2 3 1 19 8 36 16 40 23
33 9 -9z m-11 -100 c-13 -22 -37 -35 -46 -26 -3 3 8 16 23 30 33 28 42 26 23
-4z m-141 -207 c-3 -3 -12 -4 -19 -1 -8 3 -5 6 6 6 11 1 17 -2 13 -5z m277
-36 c42 -68 23 -89 -33 -38 -27 25 -31 33 -21 45 18 21 37 18 54 -7z m-175
-21 c-2 -1 -13 -9 -24 -17 -19 -14 -19 -14 -6 3 7 9 18 17 24 17 6 0 8 -1 6
-3z m77 -26 c-3 -5 -15 -11 -26 -14 -17 -4 -19 -3 -9 9 12 15 44 20 35 5z
m-57 -14 c-2 -1 -11 -8 -20 -15 -13 -9 -16 -9 -16 3 0 8 9 15 20 15 11 0 18
-1 16 -3z m641 -1347 c-8 -9 -16 -16 -17 -16 -1 1 4 18 10 39 10 33 13 35 17
15 3 -13 -1 -29 -10 -38z m60 -20 c0 -9 -40 -30 -55 -30 -12 0 9 30 23 33 29
8 32 7 32 -3z m-78 -60 c-2 -17 -9 -33 -15 -37 -7 -4 -8 0 -4 11 4 10 7 26 7
37 0 10 4 19 8 19 5 0 7 -14 4 -30z m-200 -62 c-8 -30 -19 -11 -14 24 4 27 6
29 12 13 4 -11 5 -28 2 -37z m-36 -5 c-10 -10 -19 5 -10 18 6 11 8 11 12 0 2
-7 1 -15 -2 -18z m48 -432 c3 -5 -1 -11 -9 -14 -9 -4 -12 -1 -8 9 6 16 10 17
17 5z"/>
<path d="M2035 1491 c-3 -5 -2 -12 3 -15 5 -3 9 1 9 9 0 17 -3 19 -12 6z"/>
</g>
</svg>
