<?xml version="1.0" standalone="no"?>
<!DOCTYPE svg PUBLIC "-//W3C//DTD SVG 20010904//EN"
 "http://www.w3.org/TR/2001/REC-SVG-20010904/DTD/svg10.dtd">
<svg version="1.0" xmlns="http://www.w3.org/2000/svg"
 width="1532.000000pt" height="1532.000000pt" viewBox="0 0 1532.000000 1532.000000"
 preserveAspectRatio="xMidYMid meet">

<g transform="translate(0.000000,1532.000000) scale(0.100000,-0.100000)"
fill="#000000" stroke="none">
<path d="M5065 14600 c-142 -8 -195 -15 -228 -32 -10 -5 -30 -12 -44 -14 -57
-11 -258 -129 -299 -176 -11 -13 -18 -30 -16 -38 4 -12 2 -12 -8 -3 -16 14
-32 7 -86 -39 -81 -69 -184 -188 -184 -212 0 -7 -9 -21 -20 -31 -11 -10 -17
-22 -14 -27 3 -5 -5 -17 -19 -28 -22 -18 -87 -161 -87 -193 0 -8 -7 -28 -16
-46 -9 -17 -17 -48 -19 -69 -2 -20 -5 -44 -8 -52 -16 -43 -30 -193 -30 -335
-1 -218 21 -313 126 -535 49 -104 82 -225 74 -267 -7 -39 27 -164 64 -233 64
-120 100 -120 110 2 4 41 12 85 19 99 8 13 12 42 11 63 -2 35 -1 38 13 27 8
-7 15 -16 14 -19 -1 -4 4 -20 10 -35 15 -35 15 -50 1 -64 -19 -19 -29 -95 -18
-138 12 -45 44 -85 70 -85 19 0 42 -24 32 -33 -11 -11 -39 -8 -69 8 -31 16
-54 5 -35 -17 6 -7 20 -25 32 -40 39 -53 110 -25 95 37 -13 52 92 38 114 -15
10 -25 10 -32 -4 -45 -18 -19 -22 -50 -4 -39 7 5 8 3 2 -7 -10 -17 -12 -28
-18 -94 -5 -52 -14 -59 -59 -40 -16 7 -18 3 -15 -26 2 -25 8 -35 23 -37 51 -8
105 -34 105 -52 0 -9 7 -23 15 -30 8 -7 15 -21 15 -31 0 -10 5 -21 10 -24 7
-4 9 3 5 22 -4 23 -4 24 4 8 5 -11 10 -41 10 -67 1 -27 6 -48 11 -48 6 0 10
-10 10 -22 0 -13 12 -43 25 -68 14 -25 30 -56 36 -70 6 -14 15 -33 20 -42 5
-10 9 -22 9 -28 0 -6 9 -23 19 -38 17 -24 40 -122 45 -192 1 -14 7 -35 14 -47
16 -30 15 -43 -4 -43 -14 0 -14 -3 -4 -15 7 -8 19 -15 26 -15 8 0 14 -7 14
-15 0 -8 7 -15 15 -15 9 0 18 -8 22 -17 10 -29 34 -52 48 -47 7 3 22 1 33 -5
13 -7 22 -7 30 1 9 9 12 6 12 -12 l0 -24 16 23 c11 15 20 19 26 13 6 -6 17 -8
24 -5 8 3 14 -1 14 -11 0 -9 6 -16 14 -16 12 0 36 -47 36 -71 0 -5 -13 -9 -30
-9 -22 0 -30 -5 -30 -18 0 -29 -42 -62 -79 -62 -26 0 -32 -3 -27 -16 3 -8 1
-25 -5 -37 -9 -16 -9 -22 0 -25 6 -2 11 -8 11 -13 0 -5 -9 -4 -19 3 -29 18
-54 -6 -46 -44 8 -33 -2 -35 -63 -14 -41 15 -82 48 -82 66 0 11 -34 62 -56 87
-7 7 -21 32 -33 55 -11 24 -43 69 -71 101 -27 32 -50 63 -50 68 0 5 -6 9 -12
9 -7 1 -31 26 -53 56 -79 109 -70 104 -85 48 -40 -151 -87 -294 -115 -354 -18
-37 -45 -101 -60 -143 -15 -43 -31 -77 -35 -77 -5 0 -6 -8 -3 -18 2 -10 -10
-36 -31 -62 -20 -25 -36 -52 -36 -61 0 -10 -12 -20 -27 -24 -15 -3 -31 -12
-35 -18 -7 -11 -118 55 -118 71 0 18 29 43 111 95 85 54 124 86 116 93 -4 5
-71 -22 -271 -110 -71 -31 -215 -85 -320 -120 -470 -156 -847 -366 -1123 -627
-93 -88 -144 -161 -213 -304 -79 -163 -107 -245 -155 -450 -69 -296 -247
-1389 -309 -1905 -53 -439 -85 -1045 -67 -1296 19 -271 39 -361 115 -511 18
-38 55 -126 80 -198 26 -71 74 -194 107 -272 57 -137 59 -144 59 -231 0 -209
50 -337 182 -472 46 -47 94 -106 107 -132 21 -45 22 -52 11 -140 -11 -91 -10
-96 23 -228 l34 -134 -19 -71 c-28 -101 -12 -216 36 -268 31 -33 80 -46 217
-56 108 -8 111 -8 144 -42 18 -19 65 -98 104 -176 90 -177 142 -243 227 -283
64 -31 122 -87 146 -142 17 -36 28 -36 28 1 0 52 30 162 61 222 16 33 32 59
35 59 17 0 44 -23 44 -38 1 -23 39 -50 90 -61 37 -8 88 -42 98 -64 2 -4 8 -5
13 -2 5 4 6 -1 3 -9 -6 -15 41 -46 70 -46 9 0 34 -10 56 -21 31 -16 38 -24 28
-31 -9 -6 -6 -7 8 -3 24 6 98 -31 89 -45 -3 -4 25 -23 63 -41 37 -19 74 -42
83 -51 9 -10 28 -18 43 -18 18 0 25 -4 20 -12 -4 -7 -3 -8 5 -4 6 4 23 -2 37
-13 27 -22 156 -65 187 -63 9 0 17 -3 17 -7 0 -5 18 -11 40 -15 22 -3 40 -11
40 -17 0 -7 10 -9 26 -5 15 4 32 2 40 -5 8 -6 14 -8 14 -4 0 4 7 2 15 -5 8 -6
23 -9 36 -5 14 5 19 4 15 -4 -4 -6 -2 -11 3 -11 6 0 11 5 11 11 0 6 16 -1 36
-16 19 -15 50 -31 68 -36 19 -5 50 -21 70 -34 21 -14 70 -43 111 -65 71 -38
77 -40 157 -37 70 2 90 -2 126 -20 52 -28 59 -28 80 -4 17 20 36 24 108 22 32
-1 53 -11 97 -45 79 -61 129 -83 229 -101 47 -8 93 -17 102 -21 13 -5 16 0 16
25 l0 31 -62 1 c-35 1 -72 3 -84 4 -33 3 -115 47 -125 68 -9 16 -8 17 10 5 12
-7 21 -15 21 -18 0 -3 8 -6 18 -6 9 -1 25 -4 34 -8 18 -8 19 6 2 48 -7 18 -4
19 47 11 30 -4 72 -7 94 -6 95 3 129 1 135 -10 6 -8 9 -8 14 0 4 6 12 9 17 6
5 -4 9 -1 9 4 0 23 18 10 23 -16 7 -38 -18 -71 -60 -79 -29 -6 -34 -10 -29
-28 3 -11 6 -28 6 -36 0 -10 3 -11 8 -3 4 6 23 14 44 18 34 6 36 5 43 -23 4
-21 12 -30 25 -29 16 1 18 11 16 97 -1 118 4 133 39 120 20 -8 32 -6 48 5 12
9 20 19 17 23 -3 4 12 8 33 10 34 3 42 -1 82 -45 25 -26 47 -60 51 -75 3 -16
9 -28 14 -28 5 0 10 -10 12 -22 2 -18 10 -24 40 -26 37 -3 117 34 383 179 186
101 266 136 485 213 122 43 249 106 314 154 75 57 110 69 221 77 55 4 119 11
143 16 47 10 132 47 132 58 0 3 -38 4 -84 3 -64 -3 -91 0 -116 13 -32 16 -32
18 -26 68 7 52 40 97 72 97 7 0 14 3 14 8 0 11 60 8 61 -3 0 -5 -25 -19 -57
-30 -64 -22 -80 -40 -70 -78 8 -33 13 -33 106 -2 41 13 87 25 101 25 56 0 88
11 81 29 -3 9 -8 18 -11 21 -15 13 -27 49 -30 87 -2 32 3 47 23 70 14 15 48
59 75 96 26 37 68 82 92 99 117 83 141 105 159 143 32 66 26 102 -42 258 -71
162 -73 173 -48 411 12 113 12 134 -3 204 -30 136 -130 319 -322 587 -176 247
-206 326 -219 591 -4 65 -9 139 -11 164 -8 76 2 82 136 84 137 3 190 17 349
93 103 50 124 64 200 142 97 98 156 200 211 361 29 85 33 110 36 235 3 99 0
171 -12 245 -9 58 -20 193 -25 300 -11 232 -29 369 -69 507 -17 56 -37 151
-46 210 -36 242 -104 631 -139 794 -91 419 -336 1335 -373 1397 -25 40 -118
139 -201 213 -151 136 -418 294 -610 363 -53 20 -158 58 -232 86 -74 28 -173
65 -219 81 -76 28 -132 53 -230 104 -31 17 -67 17 -580 9 -300 -6 -554 -13
-563 -18 -33 -15 -19 13 19 39 37 24 42 25 210 25 142 0 171 2 167 14 -3 7 2
20 10 29 9 8 25 39 37 69 11 29 26 59 32 66 16 20 96 6 118 -21 15 -18 18 -19
19 -6 0 9 41 54 90 99 50 45 90 86 90 91 0 5 -10 7 -22 4 -38 -9 -56 14 -49
65 2 22 75 70 105 70 14 0 29 -7 34 -15 6 -12 21 6 59 77 28 51 57 111 64 133
7 22 19 47 25 55 7 8 18 36 25 61 10 39 10 52 -6 94 -11 26 -29 61 -42 76 -21
25 -27 27 -54 17 -21 -7 -38 -7 -59 2 -51 21 -55 35 -20 67 18 15 38 40 46 56
8 15 21 27 28 27 8 0 19 15 25 33 7 20 25 41 49 56 33 20 92 94 92 115 0 3
-16 6 -36 6 -25 0 -48 9 -75 31 -21 17 -43 28 -49 24 -5 -3 -19 -1 -30 5 -17
9 -20 8 -20 -10 0 -26 -11 -25 -34 1 -11 13 -25 19 -37 16 -10 -3 -17 -1 -13
4 3 5 -2 9 -11 9 -9 0 -13 -5 -10 -11 4 -6 -3 -13 -14 -16 -12 -3 -31 -23 -41
-44 -28 -55 -59 -41 -56 26 1 27 5 30 57 40 30 6 61 15 67 19 7 4 12 2 12 -3
0 -6 3 -11 8 -11 12 0 13 64 0 88 -9 18 -9 27 0 42 16 27 15 30 -8 30 -11 0
-20 7 -20 15 0 18 -12 19 -27 4 -8 -8 -15 -6 -25 10 -17 28 -52 27 -76 -4 -11
-14 -25 -25 -31 -25 -6 0 -13 -11 -17 -25 -3 -14 -14 -31 -23 -38 -33 -24 -62
-98 -73 -186 -5 -47 -13 -90 -18 -96 -4 -5 -11 -41 -15 -80 -4 -38 -13 -82
-21 -97 -18 -35 -18 -38 6 -38 11 0 20 7 20 15 0 13 4 14 20 5 11 -6 18 -15
15 -21 -4 -5 5 -9 19 -9 14 0 26 -4 26 -9 0 -10 -71 -24 -105 -20 -37 4 -55
-1 -55 -15 0 -8 -12 -21 -27 -28 -16 -8 -39 -20 -53 -28 -14 -7 -32 -16 -40
-20 -19 -9 -26 -86 -9 -106 6 -8 9 -17 5 -21 -3 -3 -6 -1 -6 5 0 6 -15 14 -32
17 -18 4 -43 16 -55 28 l-23 20 0 -26 c0 -21 -5 -27 -21 -27 -12 0 -19 -5 -16
-12 2 -7 10 -13 18 -13 25 0 32 -25 12 -40 -17 -13 -16 -14 10 -15 l28 0 -22
-29 c-12 -16 -18 -34 -15 -40 4 -6 2 -11 -3 -11 -6 0 -11 -7 -11 -15 0 -22 17
-18 34 7 15 21 17 21 33 5 15 -15 16 -21 5 -38 -14 -22 -8 -39 14 -39 8 0 14
-9 14 -19 0 -14 5 -18 19 -14 23 6 61 -13 61 -30 0 -16 37 -39 44 -28 8 12 56
20 56 10 0 -5 14 -6 30 -2 35 6 38 -3 15 -47 -15 -29 -15 -30 6 -30 l22 0 -24
-26 c-22 -24 -29 -26 -101 -22 -62 2 -80 7 -91 22 -8 11 -19 16 -26 12 -6 -4
-23 -1 -36 8 -17 11 -22 21 -18 37 5 18 3 21 -11 16 -27 -11 -86 20 -133 68
-32 34 -50 45 -73 45 -28 0 -30 2 -30 38 0 40 -18 76 -27 55 -2 -7 -11 -13
-19 -13 -8 0 -14 -7 -14 -15 0 -8 -4 -15 -9 -15 -21 0 -41 13 -41 26 0 8 -6
14 -14 14 -18 0 -26 22 -19 49 4 15 1 21 -11 21 -10 0 -16 -7 -14 -16 5 -30
-17 -25 -37 8 -10 18 -20 27 -23 20 -5 -17 -32 -15 -32 3 0 8 -14 17 -35 21
-24 4 -35 12 -35 24 0 9 -11 29 -25 44 -14 15 -25 36 -25 46 0 16 -6 19 -30
17 -17 -2 -33 -6 -36 -10 -12 -12 -109 6 -130 24 -12 12 -24 15 -30 10 -5 -6
-19 -1 -36 14 -25 21 -28 33 -38 132 -6 59 -15 137 -20 173 -5 36 -14 110 -20
165 -15 130 -27 175 -55 205 -19 20 -24 37 -25 85 -1 33 2 81 5 107 6 40 4 49
-10 54 -9 4 -20 2 -24 -5 -8 -12 -10 -9 -50 80 -30 66 -109 143 -159 156 -69
17 -172 -32 -204 -97 -11 -22 -17 -28 -18 -17 0 30 38 94 76 125 43 36 103 45
154 25 32 -13 110 -88 110 -105 0 -5 11 -8 25 -8 14 0 25 -5 25 -12 0 -6 3 -9
6 -5 4 3 -4 31 -17 62 -16 40 -20 58 -12 66 14 14 73 2 80 -17 3 -8 11 -14 18
-14 8 0 22 -11 33 -25 11 -14 25 -25 31 -25 6 0 24 -27 41 -60 33 -66 50 -76
50 -31 0 21 12 42 45 74 41 41 44 48 38 82 -4 28 -2 41 9 49 20 14 48 70 48
94 0 10 11 29 25 42 14 13 25 32 25 41 0 40 91 96 160 98 65 2 118 9 130 16 6
3 8 26 5 53 -7 57 9 88 28 57 6 -11 15 -31 18 -45 6 -24 7 -23 25 17 18 40 29
48 63 43 8 -1 25 4 37 11 19 10 26 9 39 -1 16 -14 20 -40 6 -40 -5 0 -11 8
-13 18 -6 25 -40 -43 -36 -71 3 -20 9 -22 57 -21 33 0 56 5 59 12 2 7 10 12
17 12 8 0 19 18 25 40 6 22 15 40 21 40 25 0 39 31 39 83 0 63 23 127 46 127
24 0 54 -19 54 -34 0 -7 9 -25 20 -39 11 -14 20 -37 20 -52 0 -33 42 -80 64
-72 9 4 16 2 16 -3 0 -6 9 -10 19 -10 11 0 22 -6 24 -12 4 -9 6 -8 6 2 1 8 14
27 29 42 26 25 30 26 55 13 26 -13 27 -13 27 11 0 18 5 24 21 24 16 0 19 -4
14 -21 -6 -16 -3 -20 11 -17 10 2 21 14 25 28 4 14 7 19 8 13 2 -21 58 -15 80
8 11 12 24 18 30 14 6 -3 15 6 21 21 6 15 9 27 8 28 -2 1 -15 8 -30 16 -21 10
-28 21 -28 44 0 27 1 28 13 11 18 -23 33 -13 52 32 17 41 34 39 57 -8 13 -24
25 -34 42 -34 14 -1 33 -9 44 -18 10 -9 24 -17 30 -17 7 0 18 -16 26 -35 12
-29 20 -35 45 -35 16 0 37 -3 46 -6 12 -5 16 -2 13 12 -5 31 36 29 66 -3 14
-15 26 -33 26 -40 0 -6 11 -20 25 -31 14 -11 25 -27 25 -36 0 -9 5 -16 10 -16
6 0 10 12 10 28 0 31 25 76 80 141 73 88 75 97 72 281 -4 234 -36 340 -155
521 -87 132 -183 215 -410 352 -151 92 -230 121 -527 193 -62 15 -122 18 -350
20 -151 1 -338 -2 -415 -6z m-279 -180 c27 0 43 -25 26 -42 -7 -7 -14 -4 -21
11 -8 14 -21 21 -41 21 -33 0 -49 18 -29 31 12 7 11 9 -1 9 -10 0 -7 7 10 20
l25 19 3 -34 c3 -30 7 -35 28 -35z m577 5 c-3 -9 -8 -14 -10 -11 -3 3 -2 9 2
15 9 16 15 13 8 -4z m-783 -130 c-7 -9 -15 -13 -17 -11 -7 7 7 26 19 26 6 0 6
-6 -2 -15z m-123 -25 c1 -11 -2 -20 -8 -20 -10 0 -12 23 -2 33 9 9 9 10 10
-13z m-97 -100 c0 -5 -6 -10 -14 -10 -8 0 -18 -9 -21 -20 -4 -11 -11 -18 -16
-15 -17 11 -9 36 14 45 30 12 37 12 37 0z m-135 -129 c-19 -19 -24 -12 -18 22
5 25 6 26 19 10 11 -15 10 -20 -1 -32z m-34 -214 c-8 -8 -11 -7 -11 4 0 20 13
34 18 19 3 -7 -1 -17 -7 -23z m69 19 c0 -3 -4 -8 -10 -11 -5 -3 -10 -1 -10 4
0 6 5 11 10 11 6 0 10 -2 10 -4z m-58 -78 c-9 -9 -12 -7 -12 12 0 19 3 21 12
12 9 -9 9 -15 0 -24z m2038 -1638 c0 -5 -5 -10 -11 -10 -5 0 -7 5 -4 10 3 6 8
10 11 10 2 0 4 -4 4 -10z m20 -35 c0 -8 -4 -15 -10 -15 -5 0 -10 7 -10 15 0 8
5 15 10 15 6 0 10 -7 10 -15z m133 -736 c21 1 45 -2 53 -7 26 -15 -10 -35 -58
-32 -77 3 -83 4 -100 19 -30 25 -21 34 25 26 23 -5 59 -7 80 -6z m-1333 -824
c10 -12 10 -15 -4 -15 -9 0 -16 7 -16 15 0 8 2 15 4 15 2 0 9 -7 16 -15z m187
-11 c-3 -3 -12 -4 -19 -1 -8 3 -5 6 6 6 11 1 17 -2 13 -5z m-267 -19 c-10 -12
-16 -13 -26 -4 -20 16 -18 19 12 19 22 0 25 -2 14 -15z m288 -20 c17 -36 15
-82 -4 -93 -8 -5 -16 -16 -18 -25 -3 -25 -13 -30 -61 -35 -43 -3 -45 -2 -45
23 0 26 -14 36 -75 51 -29 7 -29 8 -5 11 86 12 92 14 79 29 -16 19 -7 26 36
29 20 1 44 9 53 18 22 23 27 21 40 -8z m1215 -62 c-13 -2 -33 -2 -45 0 -13 2
-3 4 22 4 25 0 35 -2 23 -4z m-1363 -52 c0 -5 -9 -11 -21 -14 -16 -4 -18 -3
-8 9 13 16 29 19 29 5z m157 -43 c-3 -8 -6 -5 -6 6 -1 11 2 17 5 13 3 -3 4
-12 1 -19z m1621 -314 c18 -13 22 -25 22 -74 0 -33 4 -69 9 -82 11 -29 36
-126 50 -198 11 -54 48 -194 90 -335 12 -38 21 -89 21 -112 0 -24 5 -62 10
-85 6 -24 19 -98 30 -165 11 -69 38 -176 60 -243 26 -78 44 -154 51 -213 10
-97 21 -331 13 -284 -9 49 -23 19 -17 -37 3 -29 0 -84 -6 -121 -11 -61 -10
-68 6 -81 15 -11 16 -15 4 -23 -8 -5 -10 -14 -6 -22 14 -21 28 30 25 92 -2 70
15 86 24 22 9 -68 7 -151 -3 -134 -11 18 -31 5 -31 -20 0 -10 -5 -19 -11 -19
-8 0 -8 -5 1 -15 19 -23 -7 -134 -29 -120 -5 2 -11 -8 -14 -23 -3 -15 -10 -45
-16 -67 -6 -22 -13 -53 -17 -70 -4 -16 -26 -59 -49 -95 -23 -36 -48 -76 -54
-89 -7 -13 -29 -37 -48 -54 -70 -62 -161 -86 -249 -66 -53 12 -68 22 -112 74
-25 28 -69 140 -52 130 6 -4 10 8 10 27 0 18 3 43 6 55 5 17 -1 30 -25 50 -17
15 -31 33 -31 40 0 23 -250 17 -339 -7 -132 -37 -205 -49 -313 -51 -95 -2
-108 0 -136 20 -21 15 -33 34 -38 58 -6 32 -3 40 20 59 14 13 43 26 64 29 20
4 50 11 66 16 42 13 50 1 23 -34 -13 -18 -27 -43 -31 -57 -7 -24 -5 -23 23 8
17 18 31 30 31 27 0 -2 17 5 38 17 20 12 71 39 112 61 41 21 89 47 105 57 42
24 114 46 220 65 130 24 259 93 165 89 -33 -2 -35 2 -21 40 15 37 -4 46 -148
71 -71 13 -160 32 -198 43 -51 15 -110 22 -238 27 -93 3 -251 11 -351 18 -205
14 -222 20 -249 91 -20 53 -12 90 27 119 23 17 48 19 279 23 140 2 307 9 371
15 139 14 191 10 318 -26 101 -28 162 -28 207 1 12 8 29 14 38 14 25 0 75 29
75 44 0 8 -12 22 -27 31 -16 10 -32 24 -36 32 -4 7 -16 13 -25 13 -28 0 -101
29 -121 47 -10 10 -36 32 -57 48 -21 17 -50 42 -65 57 -30 31 -123 78 -192 97
-26 8 -50 18 -53 22 -3 5 -13 9 -22 9 -17 0 -97 36 -300 136 -152 75 -185 107
-185 176 0 33 6 47 27 65 15 13 39 23 54 23 28 0 127 -30 372 -113 80 -27 203
-64 275 -83 130 -35 170 -53 255 -115 25 -18 80 -56 123 -85 l77 -52 19 27
c30 43 35 78 38 251 1 91 3 179 4 195 1 17 -8 91 -20 165 -12 74 -26 200 -31
280 -5 80 -12 171 -16 202 -6 52 -5 58 19 82 30 30 71 34 105 10z m372 -1884
c0 -5 -4 -10 -10 -10 -5 0 -10 5 -10 10 0 6 5 10 10 10 6 0 10 -4 10 -10z
m870 -5445 c0 -8 7 -15 15 -15 8 0 15 -4 15 -10 0 -5 -5 -10 -12 -10 -6 0 -22
-10 -35 -22 -13 -12 -23 -16 -23 -10 0 7 5 12 10 12 6 0 10 16 10 35 0 19 5
35 10 35 6 0 10 -7 10 -15z"/>
<path d="M7010 9251 c0 -5 7 -11 14 -14 10 -4 13 -1 9 9 -6 15 -23 19 -23 5z"/>
<path d="M7071 9204 c0 -11 3 -14 6 -6 3 7 2 16 -1 19 -3 4 -6 -2 -5 -13z"/>
<path d="M7190 8290 c0 -5 5 -10 11 -10 5 0 7 5 4 10 -3 6 -8 10 -11 10 -2 0
-4 -4 -4 -10z"/>
<path d="M6620 7550 c0 -6 4 -9 9 -5 5 3 12 -2 14 -10 4 -12 5 -12 3 1 -1 19
-26 32 -26 14z"/>
<path d="M5966 12883 c-12 -12 -139 -21 -165 -12 -27 11 -194 -25 -221 -47 -8
-7 -27 -15 -42 -19 -15 -4 -34 -17 -42 -29 -8 -13 -31 -31 -50 -40 -40 -19
-51 -56 -16 -56 12 0 29 -15 45 -40 27 -42 31 -60 15 -60 -5 0 -10 -8 -10 -17
-1 -10 -9 -33 -19 -52 l-18 -34 -27 36 c-32 42 -67 42 -61 -1 2 -15 4 -32 4
-39 1 -7 8 -10 17 -6 8 3 25 -3 37 -14 12 -11 30 -23 39 -26 9 -3 25 -21 34
-38 22 -43 30 -51 85 -78 30 -15 49 -32 56 -52 7 -17 19 -29 30 -29 10 0 27
-7 37 -15 37 -28 119 -14 373 63 17 6 47 9 66 7 25 -2 37 1 41 12 5 11 14 13
33 8 17 -4 29 -2 34 7 6 10 15 9 44 -5 31 -15 36 -15 41 -2 4 8 4 21 1 28 -2
7 1 42 8 79 11 58 18 71 55 107 24 23 44 40 45 39 2 -2 5 -39 8 -84 4 -67 12
-98 46 -175 22 -52 41 -99 41 -104 1 -20 37 -85 43 -78 4 3 28 14 54 23 25 8
51 24 57 35 6 11 17 25 24 33 6 7 12 24 12 36 0 12 23 81 52 152 40 98 52 142
52 184 1 61 7 56 -104 81 -30 6 -59 14 -64 17 -20 12 -110 0 -122 -15 -7 -10
-19 -14 -33 -10 -16 4 -21 1 -21 -13 0 -13 -11 -7 -43 24 -42 41 -105 81 -120
78 -4 -1 -10 5 -13 13 -11 27 -100 85 -132 85 -17 0 -35 7 -39 15 -6 9 -28 16
-65 18 -32 2 -61 6 -64 10 -9 9 -29 9 -38 0z m454 -207 c0 -3 -4 -8 -10 -11
-5 -3 -10 -1 -10 4 0 6 5 11 10 11 6 0 10 -2 10 -4z m27 -98 c-3 -8 -6 -5 -6
6 -1 11 2 17 5 13 3 -3 4 -12 1 -19z"/>
<path d="M6300 12255 c0 -14 5 -25 10 -25 6 0 10 11 10 25 0 14 -4 25 -10 25
-5 0 -10 -11 -10 -25z"/>
<path d="M4560 11740 c0 -5 5 -10 10 -10 6 0 10 5 10 10 0 6 -4 10 -10 10 -5
0 -10 -4 -10 -10z"/>
<path d="M5603 11555 c2 -23 8 -31 25 -33 27 -4 31 25 5 35 -10 4 -21 11 -25
17 -4 6 -6 -3 -5 -19z"/>
<path d="M5538 11286 c-18 -13 -26 -76 -10 -76 12 1 53 71 46 81 -7 12 -16 11
-36 -5z"/>
<path d="M5465 11230 c3 -5 10 -10 16 -10 5 0 9 5 9 10 0 6 -7 10 -16 10 -8 0
-12 -4 -9 -10z"/>
<path d="M6201 10596 c-5 -6 -11 -20 -13 -31 -3 -19 3 -20 152 -22 91 -1 145
2 130 7 -14 4 -44 8 -67 9 -23 1 -76 12 -117 25 -55 17 -78 21 -85 12z"/>
<path d="M6213 1408 c-12 -21 -3 -60 19 -78 23 -18 58 -102 58 -137 0 -23 10
-30 23 -16 4 3 2 12 -4 19 -26 31 14 19 77 -24 132 -90 143 -93 202 -54 l23
15 -23 15 c-13 9 -25 19 -28 23 -3 3 -19 13 -36 22 -16 8 -52 40 -80 69 -27
30 -75 72 -106 93 -31 22 -55 43 -52 46 2 4 -3 10 -12 13 -25 10 -52 7 -61 -6z"/>
<path d="M6597 1370 c-70 -4 -132 -11 -138 -17 -13 -13 17 -47 56 -61 17 -6
44 -17 60 -23 39 -16 54 -13 143 22 40 16 92 29 115 30 56 1 20 17 -40 18 -30
1 -43 5 -43 15 0 21 -13 22 -153 16z"/>
<path d="M6035 1330 c-3 -5 -14 -10 -24 -10 -23 0 -56 -36 -57 -64 -10 -181
-4 -219 22 -167 11 22 12 22 19 -6 4 -15 9 -66 11 -113 2 -47 6 -95 10 -107 4
-14 2 -23 -5 -23 -6 0 -11 -6 -11 -14 0 -20 -21 -25 -87 -20 -51 5 -128 28
-143 44 -3 3 -9 5 -15 5 -11 1 -80 31 -105 47 -8 4 -23 11 -32 14 -10 4 -18
10 -18 14 0 15 -75 38 -104 33 l-29 -6 5 62 c2 33 3 61 0 61 -9 0 -32 -30 -32
-43 0 -9 -5 -17 -11 -19 -9 -3 -9 -10 0 -27 16 -28 9 -36 -18 -21 -30 15 -28
-7 4 -50 14 -19 25 -47 25 -62 0 -15 5 -28 11 -28 20 0 69 -127 69 -180 0 -27
4 -50 8 -50 16 0 35 -89 24 -118 -26 -68 -30 -176 -7 -202 7 -8 18 -33 25 -55
7 -22 16 -49 21 -60 4 -11 9 -25 11 -30 2 -6 19 -38 38 -73 l35 -62 189 0 189
0 -6 99 c-7 128 6 285 33 386 24 95 27 258 9 511 -14 198 -9 238 36 291 l34
40 -46 7 c-61 8 -71 8 -78 -4z"/>
<path d="M5360 1141 c0 -14 -5 -18 -20 -14 -23 6 -50 -12 -50 -33 0 -8 7 -14
15 -14 8 0 14 -5 13 -12 -2 -6 5 -14 16 -16 12 -3 17 1 14 10 -6 16 20 37 46
38 20 0 45 26 46 48 0 7 -14 12 -40 12 -33 0 -40 -3 -40 -19z"/>
<path d="M6300 1152 c0 -4 11 -41 24 -82 24 -72 24 -73 19 -25 -3 28 -10 55
-15 61 -4 6 -6 18 -3 26 4 9 -1 18 -9 21 -9 4 -16 3 -16 -1z"/>
<path d="M5232 1094 c-7 -12 -4 -22 8 -34 24 -24 79 -50 85 -40 3 4 -2 11 -10
14 -8 3 -14 11 -13 18 2 7 -7 17 -19 23 -13 5 -23 15 -23 22 0 18 -17 16 -28
-3z"/>
<path d="M5360 1070 c0 -5 5 -10 10 -10 6 0 10 5 10 10 0 6 -4 10 -10 10 -5 0
-10 -4 -10 -10z"/>
<path d="M6779 1065 c18 -8 38 -15 45 -15 6 1 -4 7 -23 15 -18 8 -38 15 -45
15 -6 -1 4 -7 23 -15z"/>
<path d="M6937 1074 c-3 -3 -3 -12 0 -20 4 -10 -3 -14 -22 -14 -14 0 -24 4
-21 9 3 5 -1 11 -9 14 -9 4 -12 1 -9 -8 4 -10 -1 -12 -18 -9 -23 5 -23 5 2
-10 14 -8 34 -15 46 -16 11 0 24 -4 30 -8 19 -18 202 -72 232 -70 39 3 42 18
5 19 l-28 1 30 8 c23 5 26 8 14 14 -10 4 -23 6 -30 5 -20 -3 -47 10 -77 37
-14 13 -34 24 -46 24 -12 0 -34 7 -50 15 -31 16 -40 18 -49 9z"/>
<path d="M5345 1030 c-3 -5 -1 -10 4 -10 6 0 11 5 11 10 0 6 -2 10 -4 10 -3 0
-8 -4 -11 -10z"/>
<path d="M5658 923 c7 -3 16 -2 19 1 4 3 -2 6 -13 5 -11 0 -14 -3 -6 -6z"/>
<path d="M7200 920 c36 -11 50 -11 50 0 0 6 -17 10 -37 9 -34 -1 -35 -2 -13
-9z"/>
</g>
</svg>
